<svg xmlns="http://www.w3.org/2000/svg" xmlns:xlink="http://www.w3.org/1999/xlink" version="1.1" width="180" height="180" viewBox="0 0 256 256" xml:space="preserve">

<defs>
</defs>
<g style="stroke: none; stroke-width: 0; stroke-dasharray: none; stroke-linecap: butt; stroke-linejoin: miter; stroke-miterlimit: 10; fill: none; fill-rule: nonzero; opacity: 1;" transform="translate(1.4065934065934016 1.4065934065934016) scale(2.81 2.81)" >
	<path d="M 85.31 49.723 l -0.003 -0.001 c -2.928 -1.212 -3.154 -3.921 -3.154 -4.722 c -0.001 -0.802 0.227 -3.51 3.154 -4.723 c 1.475 -0.611 2.623 -1.76 3.235 -3.234 c 0.611 -1.474 0.611 -3.099 0 -4.574 l -3.893 -9.397 c -1.262 -3.042 -4.761 -4.496 -7.81 -3.233 c -2.929 1.214 -5.004 -0.542 -5.569 -1.108 c -0.567 -0.567 -2.321 -2.643 -1.108 -5.571 c 0.61 -1.474 0.61 -3.099 -0.001 -4.573 c -0.611 -1.475 -1.76 -2.624 -3.234 -3.234 L 57.53 1.461 c -3.042 -1.259 -6.545 0.192 -7.809 3.235 C 48.509 7.621 45.801 7.848 45 7.848 s -3.51 -0.227 -4.723 -3.154 c -0.61 -1.475 -1.759 -2.624 -3.235 -3.235 c -1.475 -0.611 -3.099 -0.611 -4.575 0 L 23.073 5.35 c -1.475 0.611 -2.624 1.759 -3.235 3.234 c -0.611 1.475 -0.611 3.1 0 4.574 c 1.213 2.927 -0.542 5.004 -1.108 5.57 c -0.566 0.567 -2.64 2.323 -5.569 1.109 c -1.475 -0.61 -3.1 -0.61 -4.575 0 c -1.476 0.611 -2.624 1.76 -3.235 3.234 l -3.892 9.395 c -0.611 1.475 -0.611 3.1 0 4.575 c 0.611 1.475 1.76 2.624 3.235 3.234 C 7.62 41.49 7.848 44.199 7.848 45 c 0 0.801 -0.228 3.509 -3.157 4.723 c -3.044 1.262 -4.494 4.766 -3.233 7.808 l 3.892 9.396 c 0.611 1.475 1.76 2.623 3.235 3.234 c 1.473 0.61 3.098 0.611 4.574 0 c 2.926 -1.21 5.003 0.542 5.57 1.109 c 0.566 0.566 2.32 2.643 1.108 5.57 c -1.261 3.043 0.189 6.546 3.234 7.809 l 9.397 3.892 C 33.205 88.847 33.98 89 34.755 89 c 0.775 0 1.55 -0.153 2.287 -0.459 c 1.475 -0.611 2.624 -1.76 3.235 -3.233 c 1.213 -2.928 3.922 -3.155 4.723 -3.155 s 3.509 0.227 4.723 3.157 c 1.262 3.042 4.766 4.489 7.808 3.232 l 9.399 -3.892 c 3.042 -1.262 4.492 -4.765 3.232 -7.808 c -1.212 -2.927 0.542 -5.004 1.109 -5.57 c 0.567 -0.567 2.639 -2.323 5.571 -1.108 c 3.045 1.256 6.545 -0.192 7.809 -3.235 l 3.893 -9.396 C 89.802 54.487 88.352 50.985 85.31 49.723 z M 45 72.499 c -15.163 0 -27.5 -12.336 -27.5 -27.499 S 29.836 17.501 45 17.501 s 27.5 12.336 27.5 27.499 S 60.163 72.499 45 72.499 z" style="stroke: none; stroke-width: 1; stroke-dasharray: none; stroke-linecap: butt; stroke-linejoin: miter; stroke-miterlimit: 10; fill: rgb(19,191,109); fill-rule: nonzero; opacity: 1;" transform=" matrix(1 0 0 1 0 0) " stroke-linecap="round" />
	<path d="M 40.098 59.95 c -0.078 0 -0.155 -0.002 -0.233 -0.006 c -1.488 -0.068 -2.867 -0.798 -3.763 -1.987 l -6.478 -8.608 c -1.661 -2.207 -1.218 -5.341 0.989 -7.002 c 2.207 -1.66 5.341 -1.217 7.001 0.988 l 2.848 3.784 l 12.221 -13.434 c 1.859 -2.043 5.021 -2.19 7.062 -0.334 c 2.043 1.858 2.192 5.02 0.334 7.063 l -16.283 17.9 C 42.847 59.358 41.502 59.95 40.098 59.95 z" style="stroke: none; stroke-width: 1; stroke-dasharray: none; stroke-linecap: butt; stroke-linejoin: miter; stroke-miterlimit: 10; fill: rgb(19,191,109); fill-rule: nonzero; opacity: 1;" transform=" matrix(1 0 0 1 0 0) " stroke-linecap="round" />
	<path d="M 45 73.499 c -15.715 0 -28.5 -12.784 -28.5 -28.499 S 29.285 16.501 45 16.501 c 15.715 0 28.5 12.785 28.5 28.499 S 60.715 73.499 45 73.499 z M 45 18.501 c -14.612 0 -26.5 11.888 -26.5 26.499 c 0 14.611 11.888 26.499 26.5 26.499 c 14.613 0 26.5 -11.888 26.5 -26.499 C 71.5 30.388 59.612 18.501 45 18.501 z" style="stroke: none; stroke-width: 1; stroke-dasharray: none; stroke-linecap: butt; stroke-linejoin: miter; stroke-miterlimit: 10; fill: rgb(0,0,0); fill-rule: nonzero; opacity: 1;" transform=" matrix(1 0 0 1 0 0) " stroke-linecap="round" />
	<path d="M 34.755 90 c -0.916 0 -1.814 -0.18 -2.67 -0.534 l -9.397 -3.893 c -3.555 -1.474 -5.248 -5.563 -3.775 -9.116 c 0.949 -2.291 -0.307 -3.896 -0.891 -4.48 c -0.584 -0.584 -2.19 -1.841 -4.481 -0.892 c -1.722 0.713 -3.618 0.713 -5.339 0 c -1.722 -0.714 -3.063 -2.055 -3.775 -3.775 l -3.892 -9.396 c -1.473 -3.552 0.22 -7.64 3.773 -9.114 C 6.6 47.849 6.848 45.826 6.848 45 c 0 -0.826 -0.247 -2.85 -2.537 -3.799 c -1.722 -0.712 -3.062 -2.054 -3.775 -3.776 c -0.713 -1.721 -0.713 -3.618 0 -5.34 l 3.892 -9.395 c 0.712 -1.721 2.053 -3.062 3.776 -3.775 c 1.721 -0.713 3.619 -0.713 5.34 0 c 2.294 0.952 3.896 -0.307 4.479 -0.892 c 0.584 -0.585 1.841 -2.191 0.892 -4.481 c -0.713 -1.721 -0.713 -3.618 0 -5.339 c 0.713 -1.722 2.054 -3.063 3.776 -3.776 l 9.395 -3.892 c 1.723 -0.714 3.62 -0.713 5.341 0 c 1.722 0.713 3.063 2.054 3.776 3.777 c 0.948 2.29 2.972 2.537 3.798 2.537 c 0.826 0 2.849 -0.247 3.798 -2.536 c 1.474 -3.553 5.56 -5.247 9.115 -3.776 L 67.31 4.43 c 1.72 0.712 3.061 2.053 3.774 3.775 c 0.713 1.721 0.714 3.617 0.001 5.338 c -0.949 2.29 0.308 3.897 0.892 4.482 c 0.583 0.583 2.189 1.839 4.479 0.891 c 3.549 -1.472 7.642 0.219 9.116 3.773 l 3.893 9.398 c 0.713 1.723 0.713 3.619 0 5.339 c -0.714 1.722 -2.055 3.063 -3.776 3.776 c -2.357 0.977 -2.538 3.154 -2.537 3.798 c 0 0.827 0.247 2.85 2.537 3.799 l 0.003 0.001 c 3.551 1.473 5.244 5.56 3.774 9.112 l -3.893 9.397 c -1.474 3.55 -5.564 5.246 -9.114 3.776 c -2.287 -0.944 -3.897 0.307 -4.484 0.892 c -0.583 0.583 -1.84 2.189 -0.891 4.479 c 1.472 3.553 -0.221 7.642 -3.772 9.115 l -9.399 3.893 c -3.556 1.469 -7.642 -0.224 -9.114 -3.772 c -0.95 -2.293 -2.974 -2.54 -3.799 -2.54 c -0.826 0 -2.85 0.247 -3.799 2.538 c -0.713 1.722 -2.054 3.062 -3.776 3.774 C 36.572 89.819 35.673 90 34.755 90 z M 15.171 68.738 c 2.221 0 3.754 1.314 4.265 1.824 c 0.677 0.678 2.775 3.159 1.325 6.66 c -1.05 2.534 0.158 5.452 2.693 6.503 l 9.397 3.893 c 1.225 0.507 2.59 0.506 3.808 0 c 1.23 -0.509 2.187 -1.465 2.695 -2.693 c 1.451 -3.5 4.688 -3.772 5.646 -3.772 s 4.196 0.272 5.647 3.774 c 1.05 2.532 3.967 3.735 6.502 2.69 l 9.398 -3.893 c 2.533 -1.051 3.74 -3.968 2.69 -6.502 c -1.45 -3.5 0.647 -5.982 1.325 -6.66 c 0.679 -0.679 3.162 -2.773 6.662 -1.324 c 2.534 1.047 5.451 -0.163 6.502 -2.695 l 3.893 -9.395 c 1.048 -2.533 -0.16 -5.449 -2.692 -6.5 l 0.001 -0.003 c -3.507 -1.486 -3.775 -4.691 -3.775 -5.644 c -0.001 -0.957 0.268 -4.195 3.771 -5.646 c 1.229 -0.509 2.186 -1.466 2.694 -2.694 c 0.508 -1.227 0.508 -2.58 0 -3.809 l -3.893 -9.397 c -1.052 -2.535 -3.97 -3.741 -6.503 -2.691 c -3.497 1.451 -5.983 -0.647 -6.66 -1.325 c -0.678 -0.679 -2.774 -3.164 -1.324 -6.661 c 0.508 -1.228 0.508 -2.58 -0.001 -3.808 c -0.509 -1.229 -1.465 -2.186 -2.692 -2.693 l -9.397 -3.893 c -2.534 -1.05 -5.451 0.16 -6.502 2.695 C 49.194 8.577 45.957 8.848 45 8.848 c -0.958 0 -4.197 -0.272 -5.646 -3.771 c -0.508 -1.229 -1.465 -2.186 -2.693 -2.694 c -1.228 -0.509 -2.582 -0.509 -3.81 0 l -9.395 3.892 c -1.229 0.509 -2.186 1.465 -2.694 2.693 c -0.508 1.229 -0.508 2.581 0 3.809 c 1.451 3.5 -0.647 5.983 -1.325 6.66 c -0.676 0.678 -3.155 2.78 -6.659 1.326 c -1.228 -0.508 -2.581 -0.508 -3.81 0 c -1.229 0.509 -2.185 1.465 -2.692 2.693 l -3.892 9.396 c -0.509 1.229 -0.509 2.581 0 3.809 c 0.509 1.229 1.465 2.186 2.693 2.694 c 3.5 1.45 3.772 4.688 3.772 5.646 c 0 0.958 -0.272 4.195 -3.774 5.646 c -2.535 1.052 -3.742 3.968 -2.691 6.501 l 3.892 9.396 c 0.508 1.228 1.465 2.184 2.693 2.693 c 1.228 0.508 2.581 0.508 3.809 0 C 13.64 68.88 14.442 68.738 15.171 68.738 z" style="stroke: none; stroke-width: 1; stroke-dasharray: none; stroke-linecap: butt; stroke-linejoin: miter; stroke-miterlimit: 10; fill: rgb(0,0,0); fill-rule: nonzero; opacity: 1;" transform=" matrix(1 0 0 1 0 0) " stroke-linecap="round" />
	<path d="M 40.098 60.95 c -0.094 0 -0.189 -0.002 -0.283 -0.007 c -1.786 -0.082 -3.432 -0.951 -4.511 -2.385 l -6.478 -8.608 c -1.989 -2.644 -1.457 -6.413 1.186 -8.402 c 2.645 -1.989 6.414 -1.456 8.402 1.186 l 2.122 2.819 l 11.409 -12.541 c 2.226 -2.447 6.028 -2.627 8.475 -0.401 c 1.186 1.079 1.88 2.554 1.956 4.155 c 0.075 1.601 -0.477 3.135 -1.556 4.321 l -16.282 17.9 C 43.401 60.234 41.784 60.95 40.098 60.95 z M 33.615 42.344 c -0.837 0 -1.682 0.261 -2.401 0.802 c -1.762 1.326 -2.117 3.839 -0.791 5.601 l 6.478 8.608 c 0.719 0.956 1.816 1.535 3.01 1.59 l 0.187 0.005 c 1.124 0 2.202 -0.477 2.958 -1.309 l 16.282 -17.9 c 0.72 -0.791 1.088 -1.813 1.037 -2.881 c -0.05 -1.067 -0.514 -2.051 -1.304 -2.77 c -1.63 -1.484 -4.164 -1.364 -5.65 0.268 l -12.22 13.434 c -0.201 0.221 -0.493 0.346 -0.786 0.326 c -0.298 -0.014 -0.574 -0.16 -0.752 -0.397 l -2.848 -3.785 C 36.03 42.894 34.83 42.344 33.615 42.344 z" style="stroke: none; stroke-width: 1; stroke-dasharray: none; stroke-linecap: butt; stroke-linejoin: miter; stroke-miterlimit: 10; fill: rgb(0,0,0); fill-rule: nonzero; opacity: 1;" transform=" matrix(1 0 0 1 0 0) " stroke-linecap="round" />
</g>
</svg>
