<svg xmlns="http://www.w3.org/2000/svg" xmlns:xlink="http://www.w3.org/1999/xlink" version="1.1" width="256" height="256" viewBox="0 0 256 256" xml:space="preserve">

<defs>
</defs>
<g style="stroke: none; stroke-width: 0; stroke-dasharray: none; stroke-linecap: butt; stroke-linejoin: miter; stroke-miterlimit: 10; fill: none; fill-rule: nonzero; opacity: 1;" transform="translate(1.4065934065934016 1.4065934065934016) scale(2.81 2.81)" >
	<path d="M 66.212 78.109 H 24.121 c -13.208 0 -23.954 -10.746 -23.954 -23.953 c 0 -10.769 7.136 -20.131 17.453 -23.048 c 4.088 -11.728 15.055 -19.55 27.546 -19.55 c 12.491 0 23.458 7.822 27.547 19.55 c 10.318 2.916 17.453 12.278 17.453 23.048 C 90.167 67.363 79.421 78.109 66.212 78.109 z M 45.167 14.525 c -11.468 0 -21.506 7.339 -24.978 18.261 l -0.252 0.792 l -0.807 0.199 C 9.712 36.099 3.134 44.479 3.134 54.155 c 0 11.572 9.415 20.986 20.987 20.986 h 42.092 c 11.573 0 20.987 -9.415 20.987 -20.986 c 0 -9.677 -6.577 -18.057 -15.996 -20.378 l -0.806 -0.199 l -0.252 -0.792 C 66.673 21.864 56.634 14.525 45.167 14.525 z M 45.167 68 c -3.46 0 -6.274 -2.814 -6.274 -6.274 V 46.61 l -1.005 1.004 c -1.181 1.181 -2.756 1.832 -4.436 1.832 c -1.68 0 -3.255 -0.651 -4.437 -1.832 c -2.446 -2.446 -2.446 -6.427 0 -8.873 l 11.697 -11.708 c 0.832 -0.833 1.873 -1.405 3.025 -1.672 l 0.184 -0.047 c 0.843 -0.168 1.662 -0.165 2.491 0 l 0.178 0.045 c 1.156 0.267 2.198 0.839 3.019 1.66 l 0.115 0.127 l 11.595 11.595 c 2.446 2.446 2.446 6.427 0 8.873 c -1.181 1.181 -2.756 1.832 -4.437 1.832 c -1.68 0 -3.255 -0.651 -4.436 -1.832 l -1.004 -1.004 v 15.116 C 51.441 65.186 48.627 68 45.167 68 z M 41.86 39.446 v 22.28 c 0 1.823 1.484 3.307 3.307 3.307 c 1.824 0 3.307 -1.484 3.307 -3.307 V 39.446 l 6.069 6.071 c 1.243 1.243 3.436 1.242 4.677 0 c 0.621 -0.621 0.963 -1.452 0.963 -2.339 c 0 -0.887 -0.342 -1.717 -0.963 -2.338 l -11.77 -11.78 c -0.416 -0.397 -0.957 -0.682 -1.558 -0.815 l -0.127 -0.033 c -0.417 -0.075 -0.792 -0.073 -1.194 -0.001 l -0.135 0.034 c -0.594 0.131 -1.131 0.412 -1.556 0.816 l -0.085 0.094 L 31.113 40.84 c -0.621 0.621 -0.963 1.452 -0.963 2.338 c 0 0.887 0.342 1.718 0.963 2.339 c 1.29 1.288 3.388 1.288 4.677 0 L 41.86 39.446 z" style="stroke: none; stroke-width: 1; stroke-dasharray: none; stroke-linecap: butt; stroke-linejoin: miter; stroke-miterlimit: 10; fill: rgb(0,0,0); fill-rule: nonzero; opacity: 1;" transform=" matrix(1 0 0 1 0 0) " stroke-linecap="round" />
</g>
</svg>